<?xml version="1.0" encoding="utf-8"?>
<!-- Generator: Adobe Illustrator 27.0.1, SVG Export Plug-In . SVG Version: 6.00 Build 0)  -->
<svg version="1.1" id="Capa_1" xmlns="http://www.w3.org/2000/svg" xmlns:xlink="http://www.w3.org/1999/xlink" x="0px" y="0px"
	 viewBox="0 0 841.9 595.3" style="enable-background:new 0 0 841.9 595.3;" xml:space="preserve">
<style type="text/css">
	.st0{fill:#FFFFFF;}
</style>
<g id="Logo_ENAE">
	<g>
		<rect x="104.2" y="395.7" class="st0" width="5.7" height="24.5"/>
		<path class="st0" d="M124.7,401c-2.7,0-4.4,1.3-5.4,3.9h-0.1v-3.5h-5.4v18.9h5.5v-10.6c0-2.1,1.1-3.6,3-3.6s2.8,1.3,2.8,3.5v10.8
			h5.6v-12.1C130.8,403.6,128.6,401,124.7,401L124.7,401z"/>
		<path class="st0" d="M141.3,397.1h-5.5v4.2h-2.3v4.4h2.3v9.3c0,3.7,1.8,5.2,6.2,5.2c1.1,0,1.9-0.1,2.4-0.2v-4.3
			c-0.3,0-0.7,0.1-1.1,0.1c-1.4,0-2-0.7-2-2v-8h3.1v-4.4h-3.1L141.3,397.1L141.3,397.1z"/>
		<path class="st0" d="M155.7,400.9c-5.3,0-8.6,3.9-8.6,9.9s3.3,9.8,8.8,9.8c4.5,0,7.7-2.5,8.2-6.3h-5c-0.4,1.3-1.6,2.1-3.2,2.1
			c-2.1,0-3.5-1.6-3.5-3.9V412h11.8v-1.7C164.2,404.6,160.9,400.9,155.7,400.9z M152.5,408.6c0.1-2,1.5-3.4,3.2-3.4s3.1,1.4,3.2,3.4
			H152.5z"/>
		<path class="st0" d="M172.8,404.8h-0.1v-3.5h-5.4v18.9h5.5v-10c0-2.6,1.3-4.1,3.7-4.1c0.7,0,1.3,0.1,1.8,0.3v-5.1
			c-0.4-0.1-0.9-0.2-1.4-0.2C174.9,401,173.4,402.3,172.8,404.8L172.8,404.8z"/>
		<path class="st0" d="M191.8,401c-2.7,0-4.4,1.3-5.4,3.9h-0.1v-3.5H181v18.9h5.5v-10.6c0-2.1,1.1-3.6,3-3.6s2.8,1.3,2.8,3.5v10.8
			h5.6v-12.1C197.9,403.6,195.7,401,191.8,401L191.8,401z"/>
		<path class="st0" d="M209.6,400.9c-4.7,0-7.8,2.5-7.9,6.3h5c0.2-1.2,1.2-2,2.7-2s2.6,0.8,2.6,2.4v1.1l-4.1,0.3
			c-4.6,0.3-7.1,2.2-7.1,5.8s2.6,5.7,5.9,5.7c2.1,0,4.2-1.1,5.2-3h0.1v2.7h5.4v-12.9C217.3,403.4,214.2,400.9,209.6,400.9
			L209.6,400.9z M211.9,413.4c0,1.7-1.5,2.9-3.3,2.9c-1.4,0-2.3-0.8-2.3-2s0.9-1.9,2.4-2l3.2-0.2V413.4z"/>
		<path class="st0" d="M227.9,397.1h-5.5v4.2H220v4.4h2.3v9.3c0,3.7,1.8,5.2,6.2,5.2c1.1,0,1.9-0.1,2.4-0.2v-4.3
			c-0.3,0-0.7,0.1-1.1,0.1c-1.4,0-2-0.7-2-2v-8h3.1v-4.4h-3.1L227.9,397.1L227.9,397.1z"/>
		<path class="st0" d="M237.1,393.8c-1.6,0-2.8,1.3-2.8,3s1.3,3,2.8,3s2.9-1.2,2.9-3S238.7,393.8,237.1,393.8z"/>
		<rect x="234.4" y="401.3" class="st0" width="5.6" height="18.9"/>
		<path class="st0" d="M251.9,400.9c-5.4,0-8.9,3.7-8.9,9.8s3.4,9.9,8.9,9.9c5.5,0,8.9-3.6,8.9-9.9S257.3,400.9,251.9,400.9
			L251.9,400.9z M251.9,416.1c-2,0-3.2-2-3.2-5.4s1.2-5.4,3.2-5.4s3.2,2,3.2,5.4S253.9,416.1,251.9,416.1z"/>
		<path class="st0" d="M274.8,401c-2.7,0-4.5,1.3-5.4,3.9h-0.1v-3.5h-5.4v18.9h5.5v-10.6c0-2.1,1.1-3.6,3-3.6s2.8,1.3,2.8,3.5v10.8
			h5.5v-12.1C280.8,403.6,278.6,401,274.8,401L274.8,401z"/>
		<path class="st0" d="M292.5,400.9c-4.7,0-7.8,2.5-7.9,6.3h5c0.2-1.2,1.2-2,2.7-2s2.6,0.8,2.6,2.4v1.1l-4.1,0.3
			c-4.5,0.3-7,2.2-7,5.8s2.6,5.7,5.9,5.7c2.1,0,4.2-1.1,5.2-3h0.1v2.7h5.4v-12.9C300.2,403.4,297.2,400.9,292.5,400.9L292.5,400.9z
			 M294.8,413.4c0,1.7-1.5,2.9-3.3,2.9c-1.4,0-2.3-0.8-2.3-2s0.9-1.9,2.4-2l3.2-0.2L294.8,413.4L294.8,413.4z"/>
		<rect x="304" y="394.5" class="st0" width="5.5" height="25.7"/>
		<path class="st0" d="M334.2,407.2v-0.1c2.5-0.4,4.4-2.6,4.4-5.3c0-3.8-2.7-6.1-7.1-6.1H321v24.5h10.8c4.8,0,7.9-2.8,7.9-7
			C339.7,409.8,337.3,407.4,334.2,407.2L334.2,407.2z M326.7,400.1h3.3c1.9,0,3,1,3,2.7s-1.2,2.8-3.3,2.8h-3V400.1z M330.2,415.7
			h-3.5v-6.3h3.4c2.4,0,3.7,1.1,3.7,3.1S332.5,415.8,330.2,415.7L330.2,415.7z"/>
		<path class="st0" d="M354,411.9c0,2.2-1.1,3.6-2.9,3.6s-2.9-1.2-2.9-3.5v-10.8h-5.5v12.1c0,4.4,2.6,7.1,6.4,7.1
			c2.6,0,4.3-1.4,5.1-3.9h0.1v3.6h5.4v-18.9H354L354,411.9L354,411.9z"/>
		<path class="st0" d="M373.8,409l-3.6-0.8c-1.3-0.3-2-0.8-2-1.6c0-1,0.9-1.7,2.3-1.7c1.6,0,2.6,0.9,2.7,2.2h5.1
			c0-3.9-3-6.3-7.7-6.3s-7.7,2.4-7.7,6.1c0,2.9,1.8,4.8,5.2,5.6l3.3,0.7c1.4,0.3,1.9,0.8,1.9,1.5c0,1-0.9,1.6-2.5,1.6
			c-1.7,0-2.8-0.8-2.9-2.2h-5.4c0.2,3.8,3.2,6.3,8.2,6.3s8.1-2.5,8.1-6.4C378.7,411.3,377.3,409.8,373.8,409L373.8,409z"/>
		<path class="st0" d="M384.5,393.8c-1.6,0-2.8,1.3-2.8,3s1.3,3,2.8,3s2.9-1.2,2.9-3S386.1,393.8,384.5,393.8z"/>
		<rect x="381.7" y="401.3" class="st0" width="5.5" height="18.9"/>
		<path class="st0" d="M401.9,401c-2.6,0-4.5,1.3-5.4,3.9h-0.1v-3.5H391v18.9h5.5v-10.6c0-2.1,1.1-3.6,3-3.6s2.8,1.3,2.8,3.5v10.8
			h5.5v-12.1C407.9,403.6,405.7,401,401.9,401L401.9,401z"/>
		<path class="st0" d="M419.6,400.9c-5.3,0-8.6,3.9-8.6,9.9s3.3,9.8,8.8,9.8c4.5,0,7.7-2.5,8.2-6.3h-5c-0.4,1.3-1.6,2.1-3.2,2.1
			c-2.1,0-3.5-1.6-3.5-3.9V412h11.8v-1.7C428.1,404.6,424.8,400.9,419.6,400.9L419.6,400.9z M416.4,408.6c0.1-2,1.5-3.4,3.2-3.4
			s3.1,1.4,3.2,3.4H416.4z"/>
		<path class="st0" d="M441.8,409l-3.6-0.8c-1.3-0.3-2-0.8-2-1.6c0-1,0.9-1.7,2.3-1.7c1.6,0,2.6,0.9,2.7,2.2h5.1
			c0-3.9-3-6.3-7.7-6.3s-7.7,2.4-7.7,6.1c0,2.9,1.8,4.8,5.2,5.6l3.3,0.7c1.4,0.3,1.9,0.8,1.9,1.5c0,1-0.9,1.6-2.5,1.6
			c-1.7,0-2.8-0.8-2.9-2.2h-5.4c0.2,3.8,3.2,6.3,8.2,6.3s8.1-2.5,8.1-6.4C446.7,411.3,445.3,409.8,441.8,409L441.8,409z"/>
		<path class="st0" d="M460.3,409l-3.6-0.8c-1.3-0.3-2-0.8-2-1.6c0-1,0.9-1.7,2.3-1.7c1.6,0,2.6,0.9,2.7,2.2h5.1
			c0-3.9-3-6.3-7.7-6.3s-7.7,2.4-7.7,6.1c0,2.9,1.8,4.8,5.2,5.6l3.3,0.7c1.4,0.3,1.9,0.8,1.9,1.5c0,1-0.9,1.6-2.5,1.6
			c-1.7,0-2.8-0.8-2.9-2.2H449c0.2,3.8,3.2,6.3,8.2,6.3s8.1-2.5,8.1-6.4C465.3,411.3,463.8,409.8,460.3,409L460.3,409z"/>
		<path class="st0" d="M487.6,405.6l-2.9-0.6c-2.4-0.5-3.4-1.2-3.4-2.6c0-1.5,1.3-2.5,3.3-2.5s3.6,1.1,3.7,2.9h5.3
			c-0.1-4.6-3.4-7.6-9-7.6c-5.2,0-9,3-9,7.8c0,3.7,2.1,6.1,6.3,7l3,0.6c2.6,0.6,3.5,1.2,3.5,2.6c0,1.5-1.5,2.6-3.7,2.6
			s-3.9-1.1-4.1-2.8h-5.5c0.1,4.8,3.6,7.5,9.4,7.5s9.5-3.1,9.5-8C494.1,408.8,492.1,406.6,487.6,405.6L487.6,405.6z"/>
		<path class="st0" d="M505.6,416c-2,0-3.3-1.9-3.3-5.2s1.2-5.3,3.3-5.3c1.7,0,2.8,1.3,3,3.2h5.1c-0.2-4.7-3.3-7.8-8.2-7.8
			c-5.4,0-8.8,3.8-8.8,9.8s3.4,9.9,8.8,9.9c4.9,0,8-2.9,8.2-7.7h-5.1C508.4,414.8,507.3,416,505.6,416L505.6,416z"/>
		<path class="st0" d="M527.8,401c-2.7,0-4.5,1.3-5.5,3.9h-0.1v-10.4h-5.4v25.7h5.5v-10.6c0-2.2,1.1-3.7,3.1-3.7s2.9,1.3,2.9,3.5
			v10.8h5.5v-12.1C533.9,403.6,531.7,401,527.8,401L527.8,401z"/>
		<path class="st0" d="M545.8,400.9c-5.4,0-8.9,3.7-8.9,9.8s3.4,9.9,8.9,9.9s8.9-3.6,8.9-9.9S551.2,400.9,545.8,400.9z M545.8,416.1
			c-2,0-3.2-2-3.2-5.4s1.2-5.4,3.2-5.4s3.2,2,3.2,5.4S547.8,416.1,545.8,416.1z"/>
		<path class="st0" d="M566,400.9c-5.4,0-8.9,3.7-8.9,9.8s3.4,9.9,8.9,9.9s8.9-3.6,8.9-9.9S571.5,400.9,566,400.9z M566,416.1
			c-2,0-3.2-2-3.2-5.4s1.2-5.4,3.2-5.4s3.2,2,3.2,5.4S568,416.1,566,416.1z"/>
		<rect x="578.1" y="394.5" class="st0" width="5.5" height="25.7"/>
		<path class="st0" d="M237.4,338.5h-93.3c-2.8,0-5-2.2-5-5V290c0-2.8,2.2-5,5-5h75.3c2.8,0,5-2.2,5-5v-20.3c0-2.8-2.2-5-5-5h-75.3
			c-2.8,0-5-2.2-5-5v-39.4c0-2.8,2.2-5,5-5h90.3c2.8,0,5-2.2,5-5v-20.6c0-2.8-2.2-5-5-5h-127c-2.8,0-5,2.2-5,5V364c0,2.8,2.2,5,5,5
			h130c2.8,0,5-2.2,5-5v-20.5C242.4,340.7,240.2,338.5,237.4,338.5L237.4,338.5z"/>
		<path class="st0" d="M255.8,369.1h24.8c2.8,0,5-2.2,5-5V243.4c0-5.1,6.7-6.9,9.3-2.6l75.4,125.8c0.9,1.5,2.5,2.4,4.3,2.4H402
			c2.8,0,5-2.2,5-5V179.7c0-2.8-2.2-5-5-5h-24.8c-2.8,0-5,2.2-5,5v111.8c0,5.1-6.7,7-9.3,2.6l-70-116.9c-0.9-1.5-2.5-2.4-4.3-2.4
			h-32.7c-2.8,0-5,2.2-5,5V364C250.8,366.8,253,369.1,255.8,369.1L255.8,369.1z"/>
		<path class="st0" d="M523.3,178c-0.7-2-2.6-3.3-4.7-3.3h-30.5c-2.1,0-4,1.3-4.7,3.3l-67.8,184.3c-1.2,3.3,1.2,6.8,4.7,6.8h26.8
			c2.1,0,4-1.3,4.7-3.3l13.2-37.3c0.7-2,2.6-3.3,4.7-3.3h65.3c2.1,0,4,1.3,4.7,3.3l13.2,37.3c0.7,2,2.6,3.3,4.7,3.3h28.3
			c3.5,0,5.9-3.5,4.7-6.7L523.3,178L523.3,178z M521.8,295h-38.7c-3.4,0-5.8-3.4-4.8-6.6l19.5-58.7c1.5-4.6,8-4.6,9.5,0l19.2,58.7
			C527.7,291.7,525.2,295,521.8,295L521.8,295z"/>
		<path class="st0" d="M734.4,338.5h-93.3c-2.8,0-5-2.2-5-5V290c0-2.8,2.2-5,5-5h75.3c2.8,0,5-2.2,5-5v-20.3c0-2.8-2.2-5-5-5h-75.3
			c-2.8,0-5-2.2-5-5v-39.4c0-2.8,2.2-5,5-5h90.3c2.8,0,5-2.2,5-5v-20.6c0-2.8-2.2-5-5-5h-127c-2.8,0-5,2.2-5,5V364c0,2.8,2.2,5,5,5
			h130c2.8,0,5-2.2,5-5v-20.5C739.5,340.7,737.2,338.5,734.4,338.5L734.4,338.5z"/>
		<path class="st0" d="M602.4,399.3h134.2c1.6,0,2.9,1.3,2.9,2.9v14.7c0,1.6-1.3,2.9-2.9,2.9H602.4c-1.6,0-2.9-1.3-2.9-2.9v-14.7
			C599.5,400.6,600.8,399.3,602.4,399.3z"/>
	</g>
</g>
</svg>
