<?xml version="1.0" encoding="UTF-8"?><svg id="Capa_1" xmlns="http://www.w3.org/2000/svg" viewBox="0 0 708.66 708.66"><defs><style>.cls-1{fill:#fff;}.cls-2{fill:#221f20;}</style></defs><rect class="cls-2" x="1.31" y="-.01" width="707.6" height="711.42"/><g><path class="cls-1" d="M481.8,435.18h-183.03c-5.44,0-9.84-4.41-9.84-9.84v-85.17c0-5.44,4.41-9.84,9.84-9.84h147.67c5.44,0,9.84-4.41,9.84-9.84v-39.75c0-5.44-4.41-9.84-9.84-9.84h-147.67c-5.44,0-9.84-4.41-9.84-9.84v-77.32c0-5.44,4.41-9.84,9.84-9.84h177.14c5.44,0,9.84-4.41,9.84-9.84v-40.31c0-5.44-4.41-9.84-9.84-9.84H226.87c-5.44,0-9.84,4.41-9.84,9.84V485.34c0,5.44,4.41,9.84,9.84,9.84h254.93c5.44,0,9.84-4.41,9.84-9.84v-40.31c0-5.44-4.41-9.84-9.84-9.84"/><path class="cls-1" d="M485.94,554.51H222.72c-3.13,0-5.69,2.56-5.69,5.7v28.87c0,3.13,2.56,5.7,5.69,5.7H485.94c3.13,0,5.7-2.56,5.7-5.7v-28.87c0-3.13-2.56-5.7-5.7-5.7"/></g></svg>