<?xml version="1.0" encoding="UTF-8"?><svg id="Capa_1" xmlns="http://www.w3.org/2000/svg" viewBox="0 0 370.4 127.12"><defs><style>.cls-1{fill:#a91832;stroke-width:0px;}</style></defs><rect class="cls-1" x="238.24" y="35.17" width="3.27" height="13.94"/><path class="cls-1" d="m249.98,38.17c-1.51,0-2.54.76-3.07,2.2h-.06v-2.02h-3.06v10.75h3.15v-6.07c0-1.22.64-2.08,1.71-2.08s1.62.74,1.62,1.99v6.15h3.16v-6.89c0-2.54-1.24-4.05-3.45-4.05Z"/><path class="cls-1" d="m259.41,35.98h-3.15v2.38h-1.33v2.53h1.33v5.28c0,2.11,1.01,2.97,3.55,2.97.62,0,1.08-.06,1.39-.14v-2.43c-.19.03-.38.05-.64.05-.77,0-1.15-.38-1.15-1.13v-4.59h1.79v-2.53h-1.79v-2.38Z"/><path class="cls-1" d="m267.62,38.12c-3.01,0-4.92,2.19-4.92,5.66s1.89,5.56,5.02,5.56c2.57,0,4.39-1.41,4.69-3.61h-2.85c-.24.73-.93,1.18-1.8,1.18-1.18,0-1.99-.9-1.99-2.21v-.21h6.7v-.97c0-3.28-1.91-5.38-4.86-5.38Zm-1.81,4.4c.08-1.15.84-1.96,1.85-1.96s1.77.77,1.83,1.96h-3.69Z"/><path class="cls-1" d="m277.37,40.37h-.06v-2.02h-3.06v10.75h3.15v-5.68c0-1.51.75-2.34,2.1-2.34.38,0,.76.07,1.02.19v-2.94c-.21-.08-.5-.14-.81-.14-1.18,0-1.99.73-2.34,2.16Z"/><path class="cls-1" d="m288.22,38.17c-1.51,0-2.54.76-3.07,2.2h-.06v-2.02h-3.06v10.75h3.15v-6.07c0-1.22.64-2.08,1.71-2.08s1.62.74,1.62,1.99v6.15h3.16v-6.89c0-2.54-1.24-4.05-3.45-4.05Z"/><path class="cls-1" d="m298.34,38.12c-2.68,0-4.43,1.44-4.51,3.61h2.84c.09-.67.67-1.16,1.52-1.16s1.47.47,1.47,1.35v.62l-2.32.16c-2.59.17-4.02,1.29-4.02,3.29s1.49,3.26,3.35,3.26c1.2,0,2.41-.61,2.95-1.69h.06v1.55h3.06v-7.36c0-2.16-1.75-3.62-4.4-3.62Zm1.32,7.11c0,.98-.86,1.64-1.88,1.64-.81,0-1.34-.43-1.34-1.11s.49-1.07,1.39-1.14l1.83-.14v.74Z"/><path class="cls-1" d="m308.76,35.98h-3.15v2.38h-1.33v2.53h1.33v5.28c0,2.11,1.01,2.97,3.55,2.97.62,0,1.08-.06,1.39-.14v-2.43c-.19.03-.38.05-.64.05-.77,0-1.15-.38-1.15-1.13v-4.59h1.79v-2.53h-1.79v-2.38Z"/><path class="cls-1" d="m314.02,34.08c-.89,0-1.62.72-1.62,1.69s.73,1.69,1.62,1.69,1.63-.71,1.63-1.69-.73-1.69-1.63-1.69Z"/><rect class="cls-1" x="312.44" y="38.35" width="3.16" height="10.75"/><path class="cls-1" d="m322.45,38.12c-3.08,0-5.05,2.12-5.05,5.6s1.92,5.61,5.05,5.61,5.05-2.05,5.05-5.61-1.96-5.6-5.05-5.6Zm0,8.69c-1.16,0-1.85-1.11-1.85-3.09s.7-3.08,1.85-3.08,1.85,1.15,1.85,3.08-.7,3.09-1.85,3.09Z"/><path class="cls-1" d="m335.47,38.17c-1.51,0-2.54.76-3.07,2.2h-.06v-2.02h-3.06v10.75h3.15v-6.07c0-1.22.64-2.08,1.71-2.08s1.62.74,1.62,1.99v6.15h3.16v-6.89c0-2.54-1.24-4.05-3.45-4.05Z"/><path class="cls-1" d="m345.59,38.12c-2.68,0-4.43,1.44-4.51,3.61h2.84c.09-.67.67-1.16,1.52-1.16s1.47.47,1.47,1.35v.62l-2.32.16c-2.59.17-4.02,1.29-4.02,3.29s1.49,3.26,3.35,3.26c1.2,0,2.41-.61,2.95-1.69h.06v1.55h3.06v-7.36c0-2.16-1.75-3.62-4.4-3.62Zm1.32,7.11c0,.98-.86,1.64-1.88,1.64-.81,0-1.34-.43-1.34-1.11s.49-1.07,1.39-1.14l1.83-.14v.74Z"/><rect class="cls-1" x="352.13" y="34.47" width="3.15" height="14.64"/><path class="cls-1" d="m245.79,63.05v-.08c1.43-.21,2.52-1.46,2.52-3.02,0-2.15-1.53-3.48-4.06-3.48h-6.01v13.94h6.17c2.75,0,4.5-1.57,4.5-4.02,0-1.86-1.38-3.26-3.12-3.34Zm-4.28-4.07h1.88c1.1,0,1.74.58,1.74,1.56s-.7,1.61-1.9,1.61h-1.72v-3.17Zm1.98,8.92h-1.98v-3.59h1.96c1.35,0,2.12.64,2.12,1.78s-.76,1.82-2.1,1.82Z"/><path class="cls-1" d="m257.05,65.73c0,1.24-.65,2.08-1.67,2.08s-1.66-.7-1.66-2v-6.14h-3.15v6.9c0,2.53,1.49,4.04,3.63,4.04,1.49,0,2.44-.81,2.88-2.21h.06v2.03h3.07v-10.75h-3.16v6.07Z"/><path class="cls-1" d="m268.34,64.07l-2.05-.46c-.76-.17-1.14-.47-1.14-.91,0-.57.53-.95,1.33-.95.91,0,1.5.49,1.52,1.27h2.88c-.02-2.2-1.7-3.58-4.37-3.58s-4.4,1.35-4.4,3.49c0,1.63,1.02,2.73,2.96,3.18l1.86.42c.79.18,1.1.44,1.1.88,0,.58-.53.93-1.42.93-.95,0-1.57-.47-1.66-1.29h-3.06c.13,2.18,1.82,3.6,4.67,3.6s4.6-1.42,4.6-3.63c0-1.62-.84-2.49-2.81-2.95Z"/><path class="cls-1" d="m274.44,55.39c-.89,0-1.62.72-1.62,1.69s.73,1.69,1.62,1.69,1.63-.71,1.63-1.69-.73-1.69-1.63-1.69Z"/><rect class="cls-1" x="272.86" y="59.66" width="3.16" height="10.75"/><path class="cls-1" d="m284.33,59.48c-1.51,0-2.54.76-3.07,2.2h-.06v-2.02h-3.06v10.75h3.15v-6.07c0-1.22.64-2.08,1.71-2.08s1.62.74,1.62,1.99v6.15h3.16v-6.89c0-2.54-1.24-4.05-3.45-4.05Z"/><path class="cls-1" d="m294.43,59.43c-3.01,0-4.92,2.19-4.92,5.66s1.89,5.56,5.02,5.56c2.57,0,4.39-1.41,4.69-3.61h-2.85c-.24.73-.93,1.18-1.8,1.18-1.18,0-1.99-.9-1.99-2.21v-.21h6.7v-.97c0-3.28-1.9-5.38-4.86-5.38Zm-1.81,4.4c.08-1.15.84-1.96,1.85-1.96s1.77.77,1.83,1.96h-3.69Z"/><path class="cls-1" d="m307.1,64.07l-2.05-.46c-.77-.17-1.14-.47-1.14-.91,0-.57.53-.95,1.33-.95.91,0,1.49.49,1.52,1.27h2.89c-.02-2.2-1.7-3.58-4.37-3.58s-4.4,1.35-4.4,3.49c0,1.63,1.02,2.73,2.96,3.18l1.86.42c.79.18,1.1.44,1.1.88,0,.58-.53.93-1.42.93-.95,0-1.57-.47-1.67-1.29h-3.06c.13,2.18,1.82,3.6,4.67,3.6s4.6-1.42,4.6-3.63c0-1.62-.84-2.49-2.81-2.95Z"/><path class="cls-1" d="m317.66,64.07l-2.05-.46c-.77-.17-1.14-.47-1.14-.91,0-.57.53-.95,1.33-.95.91,0,1.5.49,1.52,1.27h2.88c-.02-2.2-1.7-3.58-4.37-3.58s-4.4,1.35-4.4,3.49c0,1.63,1.02,2.73,2.96,3.18l1.86.42c.79.18,1.1.44,1.1.88,0,.58-.53.93-1.42.93-.95,0-1.57-.47-1.67-1.29h-3.06c.13,2.18,1.82,3.6,4.67,3.6s4.6-1.42,4.6-3.63c0-1.62-.84-2.49-2.81-2.95Z"/><path class="cls-1" d="m245.32,84.52l-1.67-.34c-1.34-.3-1.91-.71-1.91-1.47,0-.85.76-1.41,1.9-1.41s2.04.61,2.1,1.62h3.01c-.04-2.62-1.93-4.31-5.15-4.31-2.97,0-5.11,1.74-5.11,4.44,0,2.12,1.22,3.51,3.59,4l1.68.36c1.46.33,2,.7,2,1.48,0,.84-.83,1.46-2.1,1.46s-2.2-.64-2.32-1.6h-3.11c.04,2.71,2.06,4.28,5.33,4.28s5.42-1.77,5.42-4.54c0-2.2-1.14-3.45-3.68-3.98Z"/><path class="cls-1" d="m255.6,90.41c-1.17,0-1.86-1.06-1.86-2.99s.7-3,1.86-3c.96,0,1.6.72,1.71,1.84h2.89c-.09-2.66-1.89-4.44-4.66-4.44-3.07,0-5,2.14-5,5.6s1.92,5.61,5.01,5.61c2.77,0,4.55-1.67,4.65-4.38h-2.9c-.12,1.12-.75,1.76-1.71,1.76Z"/><path class="cls-1" d="m268.23,81.86c-1.51,0-2.58.76-3.11,2.2h-.06v-5.9h-3.09v14.64h3.15v-6.06c0-1.23.63-2.09,1.74-2.09s1.65.76,1.65,2v6.14h3.16v-6.88c0-2.54-1.24-4.06-3.45-4.06Z"/><path class="cls-1" d="m278.46,81.81c-3.08,0-5.05,2.12-5.05,5.6s1.92,5.61,5.05,5.61,5.05-2.05,5.05-5.61-1.96-5.6-5.05-5.6Zm0,8.69c-1.16,0-1.85-1.11-1.85-3.09s.7-3.08,1.85-3.08,1.85,1.15,1.85,3.08-.7,3.09-1.85,3.09Z"/><path class="cls-1" d="m290.02,81.81c-3.08,0-5.05,2.12-5.05,5.6s1.92,5.61,5.05,5.61,5.05-2.05,5.05-5.61-1.96-5.6-5.05-5.6Zm0,8.69c-1.16,0-1.85-1.11-1.85-3.09s.7-3.08,1.85-3.08,1.85,1.15,1.85,3.08-.7,3.09-1.85,3.09Z"/><rect class="cls-1" x="296.9" y="78.16" width="3.15" height="14.64"/><path class="cls-1" d="m55.59,83.87h-27.97c-.83,0-1.5-.67-1.5-1.5v-13.02c0-.83.67-1.5,1.5-1.5h22.57c.83,0,1.5-.67,1.5-1.5v-6.07c0-.83-.67-1.5-1.5-1.5h-22.57c-.83,0-1.5-.67-1.5-1.5v-11.82c0-.83.67-1.5,1.5-1.5h27.07c.83,0,1.5-.67,1.5-1.5v-6.16c0-.83-.67-1.5-1.5-1.5H16.63c-.83,0-1.5.67-1.5,1.5v55.26c0,.83.67,1.5,1.5,1.5h38.96c.83,0,1.5-.67,1.5-1.5v-6.16c0-.83-.67-1.5-1.5-1.5Z"/><path class="cls-1" d="m61.09,93.04h7.44c.83,0,1.5-.67,1.5-1.5v-36.16c0-1.53,2.01-2.08,2.79-.77l22.61,37.71c.27.45.76.73,1.29.73h8.18c.83,0,1.5-.67,1.5-1.5v-55.26c0-.83-.67-1.5-1.5-1.5h-7.44c-.83,0-1.5.67-1.5,1.5v33.5c0,1.53-2.01,2.08-2.79.77l-20.99-35.05c-.27-.45-.76-.73-1.29-.73h-9.8c-.83,0-1.5.67-1.5,1.5v55.26c0,.83.67,1.5,1.5,1.5Z"/><path class="cls-1" d="m141.3,35.76c-.22-.59-.78-.99-1.41-.99h-9.16c-.63,0-1.19.39-1.41.98l-20.33,55.26c-.36.98.37,2.02,1.41,2.02h8.04c.64,0,1.2-.4,1.42-1l3.97-11.19c.21-.6.78-1,1.42-1h19.58c.64,0,1.2.4,1.42,1l3.97,11.19c.21.6.78,1,1.42,1h8.49c1.05,0,1.77-1.04,1.41-2.02l-20.24-55.26Zm-.46,35.09h-11.6c-1.03,0-1.75-1-1.43-1.98l5.83-17.6c.46-1.38,2.41-1.37,2.86,0l5.77,17.6c.32.97-.41,1.97-1.43,1.97Z"/><path class="cls-1" d="m204.58,83.87h-27.97c-.83,0-1.5-.67-1.5-1.5v-13.02c0-.83.67-1.5,1.5-1.5h22.57c.83,0,1.5-.67,1.5-1.5v-6.07c0-.83-.67-1.5-1.5-1.5h-22.57c-.83,0-1.5-.67-1.5-1.5v-11.82c0-.83.67-1.5,1.5-1.5h27.07c.83,0,1.5-.67,1.5-1.5v-6.16c0-.83-.67-1.5-1.5-1.5h-38.06c-.83,0-1.5.67-1.5,1.5v55.26c0,.83.67,1.5,1.5,1.5h38.96c.83,0,1.5-.67,1.5-1.5v-6.16c0-.83-.67-1.5-1.5-1.5Z"/><rect class="cls-1" x="223.23" y="34.76" width="1.57" height="58.28" rx=".33" ry=".33"/></svg>